# xmcd
#
# Track frame offsets: 
#        150
#        12378
#        24442
#        39119
#        56046
#        71441
#        89732
#        107772
#        122906
#        139737
#        154233
#        173451
#        192803
#        218667
#
# Disc length: 4614 seconds
#
# Revision: 0
# Processed by: cddbd v1.5.1PL2 Copyright (c) Steve Scherf et al.
# Submitted via: ExactAudioCopy v0.95b4
#
DISCID=b912040e
DTITLE=Elisa Tovati - Je Ne Mâche Pas Les Mots
DYEAR=2006
DGENRE=Chamber Music
TTITLE0=Débile Menthol
TTITLE1=Le Psy
TTITLE2=Enormément
TTITLE3=L'Ennui Me Portera Conseil
TTITLE4=Au Fond De Mon Bain
TTITLE5=Je Compense Donc Je Suis
TTITLE6=5 Minutes Pour Moi Toute Seule
TTITLE7=Ca Ne Sert A Rien D'Aimer
TTITLE8=Dormir Avec Toi
TTITLE9=Un Garçon Facile
TTITLE10=Voilà Ce Qui Nous Sépare !
TTITLE11=Fin De Partie
TTITLE12=La Grève
TTITLE13=Data
EXTD=
EXTT0=
EXTT1=
EXTT2=
EXTT3=
EXTT4=
EXTT5=
EXTT6=
EXTT7=
EXTT8=
EXTT9=
EXTT10=
EXTT11=
EXTT12=
EXTT13=
PLAYORDER=
